<svg xmlns="http://www.w3.org/2000/svg" fill="#ce5d43" fill-rule="evenodd" stroke-linejoin="round" stroke-miterlimit="2" clip-rule="evenodd" viewBox="0 0 48 48" id="beach"><path d="M13.898,3c-0.907,0.009 -1.827,0.131 -2.744,0.377c-5.864,1.571 -9.349,7.608 -7.777,13.473c0.143,0.532 0.692,0.849 1.225,0.707l8.693,-2.328l4.226,15.769l-10.531,0c-2.201,0 -3.99,1.792 -3.99,4c0,2.208 1.789,4 3.99,4l1.393,0l-2.278,4.555c-0.247,0.493 -0.046,1.096 0.448,1.342c0.493,0.247 1.096,0.046 1.342,-0.448l2.724,-5.449l9.045,0l1.41,5.26c0.143,0.533 0.692,0.85 1.225,0.707c0.533,-0.143 0.85,-0.692 0.707,-1.225l-1.272,-4.742l7.647,0l2.724,5.449c0.246,0.494 0.849,0.695 1.342,0.448c0.494,-0.246 0.695,-0.849 0.448,-1.342l-2.315,-4.627c0.378,-0.081 0.766,-0.226 1.131,-0.42c0.715,-0.38 1.339,-0.908 1.596,-1.164l9.486,-9.516c1.555,-1.561 1.555,-4.093 -0,-5.654c-1.558,-1.563 -4.088,-1.563 -5.647,-0l-8.8,8.826l-9.754,0l-4.363,-16.289l8.691,-2.328c0.533,-0.143 0.85,-0.694 0.707,-1.227c-1.326,-4.948 -5.831,-8.202 -10.729,-8.154Zm22.102,0c-0.552,0 -1,0.448 -1,1l-0,2c-0,0.552 0.448,1 1,1c0.552,0 1,-0.448 1,-1l-0,-2c-0,-0.552 -0.448,-1 -1,-1Zm-21.818,2.002c3.583,0.071 6.864,2.294 8.201,5.719l-8.629,2.312c-0.004,0.001 -0.008,0.001 -0.012,0.002c-0.003,0.001 -0.006,0.003 -0.01,0.004l-8.628,2.313c-0.683,-4.473 2.096,-8.845 6.568,-10.043c0.838,-0.225 1.683,-0.323 2.51,-0.307Zm16.162,0.342c-0.256,-0 -0.512,0.098 -0.707,0.293c-0.391,0.39 -0.391,1.023 -0,1.414l1.414,1.414c0.39,0.39 1.024,0.39 1.414,-0c0.39,-0.39 0.39,-1.024 -0,-1.414l-1.414,-1.414c-0.195,-0.195 -0.451,-0.293 -0.707,-0.293Zm11.312,-0c-0.256,-0 -0.512,0.098 -0.707,0.293l-1.414,1.414c-0.39,0.39 -0.39,1.024 0,1.414c0.39,0.39 1.024,0.39 1.414,-0l1.414,-1.414c0.391,-0.391 0.391,-1.024 0,-1.414c-0.195,-0.195 -0.451,-0.293 -0.707,-0.293Zm-5.656,2.656c-2.208,0 -4,1.792 -4,4c-0,2.208 1.792,4 4,4c2.208,0 4,-1.792 4,-4c-0,-2.208 -1.792,-4 -4,-4Zm-0,2c1.104,0 2,0.896 2,2c-0,1.104 -0.896,2 -2,2c-1.104,0 -2,-0.896 -2,-2c-0,-1.104 0.896,-2 2,-2Zm-8,1c-0.552,0 -1,0.448 -1,1c-0,0.552 0.448,1 1,1l2,0c0.552,0 1,-0.448 1,-1c-0,-0.552 -0.448,-1 -1,-1l-2,0Zm14,0c-0.552,0 -1,0.448 -1,1c-0,0.552 0.448,1 1,1l2,0c0.552,0 1,-0.448 1,-1c-0,-0.552 -0.448,-1 -1,-1l-2,0Zm-10.242,4.242c-0.256,0 -0.512,0.098 -0.707,0.293l-1.414,1.414c-0.391,0.391 -0.391,1.024 -0,1.414c0.39,0.391 1.023,0.391 1.414,0l1.414,-1.414c0.39,-0.39 0.39,-1.024 -0,-1.414c-0.195,-0.195 -0.451,-0.293 -0.707,-0.293Zm8.484,0c-0.256,0 -0.512,0.098 -0.707,0.293c-0.39,0.39 -0.39,1.024 0,1.414l1.414,1.414c0.391,0.391 1.024,0.391 1.414,0c0.391,-0.39 0.391,-1.023 0,-1.414l-1.414,-1.414c-0.195,-0.195 -0.451,-0.293 -0.707,-0.293Zm-4.242,1.758c-0.552,0 -1,0.448 -1,1l-0,2c-0,0.552 0.448,1 1,1c0.552,0 1,-0.448 1,-1l-0,-2c-0,-0.552 -0.448,-1 -1,-1Zm4.969,6c0.509,0 1.02,0.195 1.408,0.584c0.779,0.781 0.779,2.049 -0,2.83l-9.486,9.516c-0.179,0.179 -0.62,0.544 -1.12,0.81c-0.254,0.135 -0.521,0.258 -0.771,0.258l-24.01,0c-1.099,0 -1.99,-0.897 -1.99,-2c-0,-1.103 0.891,-2 1.99,-2l22.772,0c0.265,0 0.519,-0.105 0.707,-0.293l9.093,-9.121c0.389,-0.389 0.898,-0.584 1.407,-0.584Z"></path></svg>