<svg xmlns="http://www.w3.org/2000/svg" fill="#ce5d43" viewBox="0 0 512.01 512" id="travel"><g data-name="Layer 2"><path d="M430.27,311.19a12.82,12.82,0,0,1-1.95-.16c-4.24-.71-7.57-3.49-9.9-8.28-1.72-3.53-3.31-7.1-4.84-10.55-.53-1.19-1.06-2.38-1.6-3.57l-2.21-4.92q-4.35-9.66-8.67-19.34-2.42-5.44-4.79-10.91c-2-4.64-4.12-9.43-6.22-14.11-1.71-3.81-3.51-7.7-5.25-11.46S381.19,220,379.41,216c-2.48-5.53-4.93-11.15-7.3-16.58q-1.51-3.5-3-7l-1,1-6.86,6.93-6.33,6.35c-4.83,4.83-9.81,9.82-14.65,14.79q.81,8.81,1.69,17.61c.79,8.12,1.61,16.51,2.33,24.8A17.27,17.27,0,0,1,340,276.51c-4.54,5-9.31,9.73-13.93,14.32l-.54.53c-4.79,4.78-9.66,4.73-12.13,4.28s-7-2.13-9.82-8.29l-7.11-15.69q-5.42-12-10.85-23.92c-2-4.4-4.35-9.52-6.81-14.64-3.14-1.45-6.34-2.88-9.46-4.28q-3.75-1.66-7.49-3.37-8.76-4-17.48-8-4.29-2-8.57-4l-3.91-1.79c-2.53-1.16-5.06-2.31-7.58-3.5-5.64-2.67-7.44-6.6-8-9.44s-.24-7.11,4-11.52c3.78-3.93,7.69-7.77,11.47-11.5l3.85-3.8c3.44-3.41,7.91-4.84,13.3-4.26,14.09,1.52,28.12,2.92,41.75,4.17,9.66-9.52,19.4-19.21,28.91-28.7-16.92-7.61-30.8-13.83-43.66-19.57q-7.92-3.54-15.87-7c-7-3.08-14.17-6.26-21.24-9.44-9-4-18.82-8.54-29.93-13.72-5.91-2.75-7.5-7.14-7.92-9.51-.51-2.9-.2-7.28,4.21-11.69l.57-.57c6.13-6.14,12.46-12.49,18.88-18.62a16.11,16.11,0,0,1,12-4.29c10.71.91,21.56,2,32.05,3l8,.77,11.68,1.11c9.85.94,20,1.9,30.06,2.93,6.29.64,12.64,1.34,18.8,2,5.44.6,10.88,1.21,16.33,1.78,9.43,1,19,1.92,28.34,2.83L391,64l2.52.28c1.51.17,3,.33,4.28.39,8.08-8,16.24-16.07,24.14-23.93q6.57-6.55,13.15-13.08l3-3a144.86,144.86,0,0,1,10.8-10.19c10.05-8.29,20.92-13,32.32-14.09,7.78-.73,14.22.67,19.66,4.27C505.1,7.47,510.47,13,511.72,23c1.4,11.24-2.54,20.94-6.13,28.13-5.17,10.38-13.07,18.17-20,25-5.79,5.72-11.65,11.61-17.3,17.31l-6.4,6.42-4.8,4.84c-3.12,3.16-6.34,6.42-9.6,9.62l.74,6.59c1.37,12,2.78,24.5,4,36.8,1,10.34,1.94,20.84,2.83,31,.62,7.08,1.24,14.16,1.9,21.24.35,3.82.79,7.74,1.22,11.53.35,3.08.7,6.15,1,9.23.41,4.06.77,8.16,1.12,12.13.74,8.34,1.5,17,2.71,25.23,1.56,10.66-1.57,18.94-9.58,25.31a84.11,84.11,0,0,0-8.49,8.29c-1.39,1.48-2.83,3-4.34,4.54C437.29,309.53,433.84,311.19,430.27,311.19ZM371.82,166.3a10.93,10.93,0,0,1,1.88.16,11.71,11.71,0,0,1,8.69,6.77c1.25,2.56,2.35,5.12,3.42,7.59.37.87.74,1.73,1.12,2.59q1.77,4,3.52,8.06c2.34,5.39,4.77,11,7.2,16.39,1.74,3.87,3.57,7.81,5.34,11.62s3.59,7.76,5.35,11.68c2.14,4.77,4.26,9.61,6.3,14.3,1.57,3.6,3.15,7.21,4.74,10.8,2.85,6.42,5.74,12.83,8.62,19.24l2.22,4.93c.55,1.21,1.09,2.43,1.63,3.64l.7,1.57a82.21,82.21,0,0,1,8.38-7.88c2.15-1.71,2.85-2.67,2.25-6.76-1.29-8.84-2.08-17.75-2.84-26.37-.35-3.91-.7-7.95-1.1-11.89-.3-3-.64-6-1-9-.44-3.9-.9-7.93-1.27-11.94-.66-7.12-1.28-14.23-1.91-21.34-.88-10.1-1.8-20.55-2.8-30.79-1.19-12.15-2.59-24.53-3.95-36.5l-.93-8.27a16.37,16.37,0,0,1,5.26-14.07c3.41-3.34,6.86-6.82,10.18-10.18,1.62-1.64,3.23-3.27,4.86-4.9l6.37-6.4c5.69-5.73,11.58-11.65,17.44-17.44,6.14-6.06,12.49-12.33,16.18-19.74,3.51-7,4.76-12,4.18-16.73-.38-3-1.49-3.76-2.08-4.15-1.1-.72-2.76-1.41-6.78-1-7.43.7-14.45,3.84-21.44,9.61a128,128,0,0,0-9.31,8.82q-1.54,1.57-3.1,3.12Q442.59,48.34,436,54.88c-8.29,8.25-16.86,16.78-25.36,25.13a17,17,0,0,1-11.24,4.65,62.23,62.23,0,0,1-8.2-.54c-.74-.09-1.47-.17-2.21-.24l-9.11-.9c-9.32-.91-19-1.85-28.46-2.84-5.49-.57-11-1.18-16.48-1.79-6.1-.68-12.41-1.39-18.61-2-9.95-1-20.1-2-29.92-2.91l-11.7-1.11-8-.77C257,70.6,247,69.62,237.06,68.77c-3.61,3.48-7.22,7-10.78,10.58,7.46,3.44,14.31,6.57,20.76,9.47,7,3.15,14.2,6.32,21.14,9.39l15.93,7.06c13,5.8,27,12.09,44.17,19.8,2.76,1.24,5.46,2.51,8.31,3.85l4.1,1.93a10,10,0,0,1,3.61,15.28c-.29.36-.53.68-.74,1a21.12,21.12,0,0,1-2.11,2.5l-3.29,3.28c-11.42,11.39-23.22,23.17-34.93,34.69A15.68,15.68,0,0,1,291.37,192c-14.07-1.28-28.6-2.72-43.21-4.29L245.84,190c-1.39,1.38-2.81,2.77-4.22,4.18l2.52,1.15,8.59,4q8.7,4,17.4,8,3.66,1.67,7.34,3.3c3.77,1.69,7.67,3.43,11.51,5.23A15.53,15.53,0,0,1,296.1,223c2.8,5.76,5.46,11.55,7.69,16.45q5.44,12,10.86,24l3.28,7.24c2.13-2.17,4.24-4.36,6.28-6.56-.68-7.67-1.43-15.45-2.17-23-.64-6.59-1.29-13.18-1.88-19.78a15.49,15.49,0,0,1,4-11.88c5.5-5.68,11.15-11.34,16.61-16.81l6.31-6.32q3.42-3.44,6.82-6.89,4.35-4.4,8.71-8.78C365.46,167.75,368.56,166.3,371.82,166.3Zm-93.71,65.45,0,0Zm62-12.25v0Zm-50.85-46.23v0Z"></path><path d="M256,512A256,256,0,0,1,75,75,256,256,0,0,1,417.7,57.53,10,10,0,1,1,405.06,73,236.43,236.43,0,0,0,256,20C125.88,20,20,125.87,20,256S125.88,492,256,492,492,386.13,492,256a236.44,236.44,0,0,0-52.89-148.88,10,10,0,0,1,15.51-12.63A256,256,0,0,1,256,512Z"></path><path d="M170.66 491.92a10 10 0 01-9.51-13.09l34-104.95a37.4 37.4 0 00-27.74-48.1l-.93-.2a57.41 57.41 0 01-35.75-88 37.49 37.49 0 00-4.67-47.19L53.14 117.48a10 10 0 1114.14-14.14l72.93 72.93a57.55 57.55 0 017.17 72.43A37.41 37.41 0 00170.67 306l.93.2a57.42 57.42 0 0142.59 73.83l-34 105A10 10 0 01170.66 491.92zM445.82 208.39a10 10 0 01-6.48-17.62l38.92-33.12a10 10 0 0113 15.24L452.3 206A10 10 0 01445.82 208.39zM321.27 502a10 10 0 01-10-10V440.9a61.71 61.71 0 0130-52.9 41.93 41.93 0 0020.25-35.76V285.52A61.47 61.47 0 01384 237.83l9.6-8.17a10 10 0 1113 15.23l-9.67 8.23-.16.13a41.53 41.53 0 00-15.29 32.27v66.72a62 62 0 01-30 52.91 41.7 41.7 0 00-20.25 35.75V492A10 10 0 01321.27 502z"></path><path d="M45.32,455.91c-15.46,0-25.44-5.26-31.77-11.15C-6,426.52-4.34,390.28,18.36,342.7a10,10,0,1,1,18,8.62c-17.81,37.33-21.35,67.52-9.24,78.8,9.53,8.87,30.1,7.41,56.44-4l.25-.1c37.74-16.43,82.52-50.7,122.9-94,31.33-33.65,57.62-70.4,74-103.49a10,10,0,1,1,17.92,8.88C281.47,272.14,254,310.58,221.4,345.6,179.12,391,131.8,427,91.57,444.47l-.27.12C72.21,452.82,57.16,455.91,45.32,455.91Z"></path></g></svg>