<svg xmlns="http://www.w3.org/2000/svg" fill="#ce5d43" viewBox="0 0 351.35 511.15" id="passport"><g data-name="Layer 2"><path d="M306.57,511.15H44.78A44.83,44.83,0,0,1,0,466.37V79.74a10,10,0,0,1,10-10H306.57a44.83,44.83,0,0,1,44.78,44.78V466.37A44.83,44.83,0,0,1,306.57,511.15ZM20,89.74V466.37a24.81,24.81,0,0,0,24.78,24.78H306.57a24.81,24.81,0,0,0,24.78-24.78V114.52a24.81,24.81,0,0,0-24.78-24.78Z"></path><path d="M10 89.74A10 10 0 017.44 70.07L265.92 1.59a43.76 43.76 0 0155.31 42.19v36a10 10 0 11-20 0v-36a23.77 23.77 0 00-30.09-22.89L12.56 89.4A9.85 9.85 0 0110 89.74zM175.68 370.68c-69.19 0-125.47-56.25-125.47-125.39S106.49 119.9 175.68 119.9s125.47 56.25 125.47 125.39S244.86 370.68 175.68 370.68zm0-230.78A105.39 105.39 0 10281.15 245.29 105.55 105.55 0 00175.68 139.9z"></path><path d="M175.68,370.68c-18.82,0-35.89-14-48.07-39.48-11.07-23.12-17.16-53.62-17.16-85.91s6.09-62.79,17.16-85.91c12.18-25.45,29.25-39.48,48.07-39.48s35.88,14,48.07,39.48C234.81,182.5,240.9,213,240.9,245.29s-6.09,62.79-17.15,85.91C211.56,356.66,194.49,370.68,175.68,370.68Zm0-230.78c-21.39,0-45.23,43.29-45.23,105.39s23.84,105.39,45.23,105.39S220.9,307.4,220.9,245.29,197.07,139.9,175.68,139.9Z"></path><path d="M175.68,310.48c-32.31,0-62.84-6.09-86-17.14-25.47-12.18-39.5-29.24-39.5-48s14-35.87,39.5-48c23.13-11.06,53.66-17.14,86-17.14s62.83,6.08,86,17.14c25.47,12.17,39.51,29.24,39.51,48s-14,35.87-39.51,48C238.51,304.39,208,310.48,175.68,310.48Zm0-110.37c-62.16,0-105.47,23.81-105.47,45.18s43.31,45.19,105.47,45.19,105.47-23.82,105.47-45.19S237.83,200.11,175.68,200.11Z"></path><path d="M175.68,370.68a10,10,0,0,1-10-10V129.9a10,10,0,0,1,20,0V360.68A10,10,0,0,1,175.68,370.68Z"></path><path d="M291.15 255.29H60.21a10 10 0 010-20H291.15a10 10 0 010 20zM291.15 420.85H60.21a10 10 0 110-20H291.15a10 10 0 010 20zM291.15 461H60.21a10 10 0 110-20H291.15a10 10 0 010 20z"></path></g></svg>